<svg width="351" height="182" viewBox="0 0 351 182" fill="none" xmlns="http://www.w3.org/2000/svg">
<path d="M0 122H351V172C351 177.523 346.523 182 341 182H9.99999C4.47715 182 0 177.523 0 172V122Z" fill="white"/>
<rect x="8" y="130" width="44" height="44" rx="10" fill="#3F8AE0"/>
<path d="M37.65 149.922C38.8314 150.604 39.4221 150.945 39.6203 151.39C39.7932 151.778 39.7932 152.222 39.6203 152.61C39.4221 153.055 38.8314 153.396 37.65 154.078L27.6 159.881C26.4186 160.563 25.8279 160.904 25.3432 160.853C24.9204 160.809 24.5364 160.587 24.2865 160.243C24 159.849 24 159.167 24 157.802L24 146.198C24 144.833 24 144.151 24.2865 143.757C24.5364 143.413 24.9204 143.191 25.3432 143.147C25.8279 143.096 26.4186 143.437 27.6 144.119L37.65 149.922Z" fill="white"/>
<rect width="44" height="44" rx="10" transform="matrix(-1 0 0 1 343 130)" fill="#F2F3F5"/>
<path d="M321 160V150" stroke="#3F8AE0" stroke-width="2" stroke-linecap="round" stroke-linejoin="round"/>
<path d="M315 160V144" stroke="#3F8AE0" stroke-width="2" stroke-linecap="round" stroke-linejoin="round"/>
<path d="M327 160V156" stroke="#3F8AE0" stroke-width="2" stroke-linecap="round" stroke-linejoin="round"/>
<rect x="251" y="130" width="44" height="44" rx="10" fill="#F2F3F5"/>
<path d="M273 160V150" stroke="#3F8AE0" stroke-width="2" stroke-linecap="round" stroke-linejoin="round"/>
<path d="M279 160V144" stroke="#3F8AE0" stroke-width="2" stroke-linecap="round" stroke-linejoin="round"/>
<path d="M267 160V156" stroke="#3F8AE0" stroke-width="2" stroke-linecap="round" stroke-linejoin="round"/>
<g opacity="0.4">
<rect x="82" y="130" width="44" height="44" rx="10" fill="#F2F3F5"/>
<path d="M98 149C99.6569 149 101 147.657 101 146C101 144.343 99.6569 143 98 143C96.3431 143 95 144.343 95 146C95 147.657 96.3431 149 98 149Z" stroke="#3F8AE0" stroke-width="2" stroke-linecap="round" stroke-linejoin="round"/>
<path d="M98 161C99.6569 161 101 159.657 101 158C101 156.343 99.6569 155 98 155C96.3431 155 95 156.343 95 158C95 159.657 96.3431 161 98 161Z" stroke="#3F8AE0" stroke-width="2" stroke-linecap="round" stroke-linejoin="round"/>
<path d="M112 144L100.12 155.88" stroke="#3F8AE0" stroke-width="2" stroke-linecap="round" stroke-linejoin="round"/>
<path d="M106.47 154.48L112 160" stroke="#3F8AE0" stroke-width="2" stroke-linecap="round" stroke-linejoin="round"/>
<path d="M100.12 148.12L104 152" stroke="#3F8AE0" stroke-width="2" stroke-linecap="round" stroke-linejoin="round"/>
</g>
<g opacity="0.4">
<rect x="130" y="130" width="44" height="44" rx="10" fill="#F2F3F5"/>
<path fill-rule="evenodd" clip-rule="evenodd" d="M150.236 143.264C150.588 143.615 150.588 144.185 150.236 144.536L147.673 147.1H152C155.258 147.1 157.9 149.742 157.9 153C157.9 156.258 155.258 158.9 152 158.9H147.9C147.403 158.9 147 158.497 147 158C147 157.503 147.403 157.1 147.9 157.1H152C154.264 157.1 156.1 155.264 156.1 153C156.1 150.736 154.264 148.9 152 148.9H147.673L150.236 151.464C150.588 151.815 150.588 152.385 150.236 152.736C149.885 153.088 149.315 153.088 148.964 152.736L144.864 148.636C144.695 148.468 144.6 148.239 144.6 148C144.6 147.761 144.695 147.532 144.864 147.364L148.964 143.264C149.315 142.912 149.885 142.912 150.236 143.264Z" fill="#3F8AE0"/>
</g>
<rect x="203" y="130" width="44" height="44" rx="10" fill="#F2F3F5"/>
<path d="M221.785 154.65C221.784 154.724 221.783 155.216 221.786 156.323C221.796 159.401 220.931 160.972 219.114 161.947C216.929 163.119 214.098 162.053 213.802 159.366C213.509 156.711 216.218 154.885 219.996 154.793L219.996 150.815L219.996 147.881L219.996 146.36C219.996 146.338 219.996 146.312 219.996 146.282C220.005 144.79 221.323 143.654 223.245 143.284C227.26 142.413 229.664 141.942 230.053 141.866C230.758 141.727 231.387 141.696 232.046 141.895C233.146 142.228 233.816 143.149 233.816 144.559V150.815L233.77 150.815L233.816 150.84V153.821C233.816 153.839 233.816 153.849 233.816 153.857L233.815 153.9C233.815 157.443 232.645 159.394 229.923 159.887C227.914 160.251 225.783 158.694 226.025 156.406C226.279 153.994 228.172 153.036 232.016 152.332V147.198L221.997 149.392C221.977 149.397 221.88 149.418 221.796 149.437L221.796 154.282C221.796 154.514 221.796 154.578 221.785 154.65ZM219.985 156.594C217.16 156.674 215.444 157.834 215.591 159.169C215.733 160.46 217.111 160.979 218.263 160.361C219.427 159.736 219.954 158.834 219.985 156.594ZM232.013 154.165C229.195 154.712 227.942 155.386 227.815 156.594C227.712 157.573 228.683 158.282 229.602 158.116C231.275 157.813 231.97 156.736 232.013 154.165ZM230.401 143.632C230.03 143.705 228.033 144.178 224.026 145.048C222.836 145.277 221.799 145.808 221.796 146.292L221.795 146.46L221.795 146.521L221.795 147.593L232.016 145.353V144.559C232.016 143.936 231.858 143.719 231.525 143.618C231.223 143.527 230.838 143.546 230.401 143.632Z" fill="#3F8AE0"/>
<g clip-path="url(#clip0)">
<rect width="351" height="26" fill="#F2F3F5"/>
<rect y="25.5" width="351" height="0.5" fill="#D7D8D9"/>
<rect width="0.5" height="2" rx="0.25" transform="matrix(-1 0 0 1 49 23)" fill="#99A2AD"/>
<rect width="0.5" height="2" rx="0.25" transform="matrix(-1 0 0 1 38 23)" fill="#99A2AD"/>
<rect width="0.5" height="2" rx="0.25" transform="matrix(-1 0 0 1 27 23)" fill="#99A2AD"/>
<rect width="0.5" height="2" rx="0.25" transform="matrix(-1 0 0 1 16 23)" fill="#99A2AD"/>
<rect width="0.5" height="2" rx="0.25" transform="matrix(-1 0 0 1 5 23)" fill="#99A2AD"/>
<rect width="0.5" height="4" rx="0.25" transform="matrix(-1 0 0 1 43.5 21)" fill="#99A2AD"/>
<rect width="0.5" height="9" rx="0.25" transform="matrix(-1 0 0 1 54.5 16)" fill="#99A2AD"/>
<rect width="0.5" height="4" rx="0.25" transform="matrix(-1 0 0 1 32.5 21)" fill="#99A2AD"/>
<rect width="0.5" height="4" rx="0.25" transform="matrix(-1 0 0 1 21.5 21)" fill="#99A2AD"/>
<rect width="0.5" height="4" rx="0.25" transform="matrix(-1 0 0 1 10.5 21)" fill="#99A2AD"/>
<rect width="0.5" height="2" rx="0.25" transform="matrix(-1 0 0 1 104 23)" fill="#99A2AD"/>
<rect width="0.5" height="2" rx="0.25" transform="matrix(-1 0 0 1 93 23)" fill="#99A2AD"/>
<rect width="0.5" height="2" rx="0.25" transform="matrix(-1 0 0 1 82 23)" fill="#99A2AD"/>
<rect width="0.5" height="2" rx="0.25" transform="matrix(-1 0 0 1 71 23)" fill="#99A2AD"/>
<rect width="0.5" height="2" rx="0.25" transform="matrix(-1 0 0 1 60 23)" fill="#99A2AD"/>
<rect width="0.5" height="4" rx="0.25" transform="matrix(-1 0 0 1 98.5 21)" fill="#99A2AD"/>
<rect width="0.5" height="9" rx="0.25" transform="matrix(-1 0 0 1 109.5 16)" fill="#99A2AD"/>
<rect width="0.5" height="4" rx="0.25" transform="matrix(-1 0 0 1 87.5 21)" fill="#99A2AD"/>
<rect width="0.5" height="4" rx="0.25" transform="matrix(-1 0 0 1 76.5 21)" fill="#99A2AD"/>
<rect width="0.5" height="4" rx="0.25" transform="matrix(-1 0 0 1 65.5 21)" fill="#99A2AD"/>
<rect width="0.5" height="2" rx="0.25" transform="matrix(-1 0 0 1 159 23)" fill="#99A2AD"/>
<rect width="0.5" height="2" rx="0.25" transform="matrix(-1 0 0 1 148 23)" fill="#99A2AD"/>
<rect width="0.5" height="2" rx="0.25" transform="matrix(-1 0 0 1 137 23)" fill="#99A2AD"/>
<rect width="0.5" height="2" rx="0.25" transform="matrix(-1 0 0 1 126 23)" fill="#99A2AD"/>
<rect width="0.5" height="2" rx="0.25" transform="matrix(-1 0 0 1 115 23)" fill="#99A2AD"/>
<rect width="0.5" height="4" rx="0.25" transform="matrix(-1 0 0 1 153.5 21)" fill="#99A2AD"/>
<rect width="0.5" height="9" rx="0.25" transform="matrix(-1 0 0 1 164.5 16)" fill="#99A2AD"/>
<rect width="0.5" height="4" rx="0.25" transform="matrix(-1 0 0 1 142.5 21)" fill="#99A2AD"/>
<rect width="0.5" height="4" rx="0.25" transform="matrix(-1 0 0 1 131.5 21)" fill="#99A2AD"/>
<rect width="0.5" height="4" rx="0.25" transform="matrix(-1 0 0 1 120.5 21)" fill="#99A2AD"/>
<rect width="0.5" height="2" rx="0.25" transform="matrix(-1 0 0 1 214 23)" fill="#99A2AD"/>
<rect width="0.5" height="2" rx="0.25" transform="matrix(-1 0 0 1 203 23)" fill="#99A2AD"/>
<rect width="0.5" height="2" rx="0.25" transform="matrix(-1 0 0 1 192 23)" fill="#99A2AD"/>
<rect width="0.5" height="2" rx="0.25" transform="matrix(-1 0 0 1 181 23)" fill="#99A2AD"/>
<rect width="0.5" height="2" rx="0.25" transform="matrix(-1 0 0 1 170 23)" fill="#99A2AD"/>
<rect width="0.5" height="4" rx="0.25" transform="matrix(-1 0 0 1 208.5 21)" fill="#99A2AD"/>
<rect width="0.5" height="9" rx="0.25" transform="matrix(-1 0 0 1 219.5 16)" fill="#99A2AD"/>
<rect width="0.5" height="4" rx="0.25" transform="matrix(-1 0 0 1 197.5 21)" fill="#99A2AD"/>
<rect width="0.5" height="4" rx="0.25" transform="matrix(-1 0 0 1 186.5 21)" fill="#99A2AD"/>
<rect width="0.5" height="4" rx="0.25" transform="matrix(-1 0 0 1 175.5 21)" fill="#99A2AD"/>
<rect width="0.5" height="2" rx="0.25" transform="matrix(-1 0 0 1 269 23)" fill="#99A2AD"/>
<rect width="0.5" height="2" rx="0.25" transform="matrix(-1 0 0 1 258 23)" fill="#99A2AD"/>
<rect width="0.5" height="2" rx="0.25" transform="matrix(-1 0 0 1 247 23)" fill="#99A2AD"/>
<rect width="0.5" height="2" rx="0.25" transform="matrix(-1 0 0 1 236 23)" fill="#99A2AD"/>
<rect width="0.5" height="2" rx="0.25" transform="matrix(-1 0 0 1 225 23)" fill="#99A2AD"/>
<rect width="0.5" height="4" rx="0.25" transform="matrix(-1 0 0 1 263.5 21)" fill="#99A2AD"/>
<rect width="0.5" height="9" rx="0.25" transform="matrix(-1 0 0 1 274.5 16)" fill="#99A2AD"/>
<rect width="0.5" height="4" rx="0.25" transform="matrix(-1 0 0 1 252.5 21)" fill="#99A2AD"/>
<rect width="0.5" height="4" rx="0.25" transform="matrix(-1 0 0 1 241.5 21)" fill="#99A2AD"/>
<rect width="0.5" height="4" rx="0.25" transform="matrix(-1 0 0 1 230.5 21)" fill="#99A2AD"/>
<rect width="0.5" height="2" rx="0.25" transform="matrix(-1 0 0 1 324 23)" fill="#99A2AD"/>
<rect width="0.5" height="2" rx="0.25" transform="matrix(-1 0 0 1 313 23)" fill="#99A2AD"/>
<rect width="0.5" height="2" rx="0.25" transform="matrix(-1 0 0 1 302 23)" fill="#99A2AD"/>
<rect width="0.5" height="2" rx="0.25" transform="matrix(-1 0 0 1 291 23)" fill="#99A2AD"/>
<rect width="0.5" height="2" rx="0.25" transform="matrix(-1 0 0 1 280 23)" fill="#99A2AD"/>
<rect width="0.5" height="4" rx="0.25" transform="matrix(-1 0 0 1 318.5 21)" fill="#99A2AD"/>
<rect width="0.5" height="9" rx="0.25" transform="matrix(-1 0 0 1 329.5 16)" fill="#99A2AD"/>
<rect width="0.5" height="4" rx="0.25" transform="matrix(-1 0 0 1 307.5 21)" fill="#99A2AD"/>
<rect width="0.5" height="4" rx="0.25" transform="matrix(-1 0 0 1 296.5 21)" fill="#99A2AD"/>
<rect width="0.5" height="4" rx="0.25" transform="matrix(-1 0 0 1 285.5 21)" fill="#99A2AD"/>
<rect width="0.5" height="2" rx="0.25" transform="matrix(-1 0 0 1 346 23)" fill="#99A2AD"/>
<rect width="0.5" height="2" rx="0.25" transform="matrix(-1 0 0 1 335 23)" fill="#99A2AD"/>
<rect width="0.5" height="4" rx="0.25" transform="matrix(-1 0 0 1 340.5 21)" fill="#99A2AD"/>
<path d="M47.9769 14.1494C49.4007 14.1494 50.2181 12.9453 50.2181 10.8403C50.2181 8.73975 49.3875 7.50928 47.9769 7.50928C46.5575 7.50928 45.7269 8.73535 45.7269 10.8271C45.7269 12.9365 46.5487 14.1494 47.9769 14.1494ZM47.9769 13.4595C47.0409 13.4595 46.5223 12.5234 46.5223 10.8271C46.5223 9.15283 47.0497 8.20361 47.9769 8.20361C48.9041 8.20361 49.4227 9.14404 49.4227 10.8271C49.4227 12.5278 48.9129 13.4595 47.9769 13.4595ZM52.3139 14.0439C52.6303 14.0439 52.8852 13.7847 52.8852 13.4727C52.8852 13.1562 52.6303 12.9014 52.3139 12.9014C52.0019 12.9014 51.7426 13.1562 51.7426 13.4727C51.7426 13.7847 52.0019 14.0439 52.3139 14.0439ZM52.3139 10.6646C52.6303 10.6646 52.8852 10.4053 52.8852 10.0933C52.8852 9.77686 52.6303 9.52197 52.3139 9.52197C52.0019 9.52197 51.7426 9.77686 51.7426 10.0933C51.7426 10.4053 52.0019 10.6646 52.3139 10.6646ZM56.0445 14H56.8355V7.65869H56.0489L54.3614 8.87158V9.70654L55.9742 8.5376H56.0445V14ZM61.0319 14.1494C62.4557 14.1494 63.2731 12.9453 63.2731 10.8403C63.2731 8.73975 62.4425 7.50928 61.0319 7.50928C59.6125 7.50928 58.7819 8.73535 58.7819 10.8271C58.7819 12.9365 59.6037 14.1494 61.0319 14.1494ZM61.0319 13.4595C60.0959 13.4595 59.5773 12.5234 59.5773 10.8271C59.5773 9.15283 60.1046 8.20361 61.0319 8.20361C61.9591 8.20361 62.4777 9.14404 62.4777 10.8271C62.4777 12.5278 61.9679 13.4595 61.0319 13.4595Z" fill="#99A2AD"/>
<path d="M102.335 14.1494C103.759 14.1494 104.577 12.9453 104.577 10.8403C104.577 8.73975 103.746 7.50928 102.335 7.50928C100.916 7.50928 100.085 8.73535 100.085 10.8271C100.085 12.9365 100.907 14.1494 102.335 14.1494ZM102.335 13.4595C101.399 13.4595 100.881 12.5234 100.881 10.8271C100.881 9.15283 101.408 8.20361 102.335 8.20361C103.263 8.20361 103.781 9.14404 103.781 10.8271C103.781 12.5278 103.271 13.4595 102.335 13.4595ZM106.672 14.0439C106.989 14.0439 107.244 13.7847 107.244 13.4727C107.244 13.1562 106.989 12.9014 106.672 12.9014C106.36 12.9014 106.101 13.1562 106.101 13.4727C106.101 13.7847 106.36 14.0439 106.672 14.0439ZM106.672 10.6646C106.989 10.6646 107.244 10.4053 107.244 10.0933C107.244 9.77686 106.989 9.52197 106.672 9.52197C106.36 9.52197 106.101 9.77686 106.101 10.0933C106.101 10.4053 106.36 10.6646 106.672 10.6646ZM108.891 9.44287V9.44727H109.656V9.44287C109.656 8.6958 110.157 8.19922 110.899 8.19922C111.598 8.19922 112.139 8.68701 112.139 9.31982C112.139 9.82959 111.941 10.1724 111.124 11.0601L108.931 13.4551V14H113.035V13.2881H110.065V13.2178L111.589 11.5786C112.631 10.4624 112.93 9.94824 112.93 9.28906C112.93 8.28271 112.06 7.50928 110.921 7.50928C109.744 7.50928 108.891 8.31787 108.891 9.44287ZM116.673 14.1494C118.097 14.1494 118.915 12.9453 118.915 10.8403C118.915 8.73975 118.084 7.50928 116.673 7.50928C115.254 7.50928 114.423 8.73535 114.423 10.8271C114.423 12.9365 115.245 14.1494 116.673 14.1494ZM116.673 13.4595C115.737 13.4595 115.219 12.5234 115.219 10.8271C115.219 9.15283 115.746 8.20361 116.673 8.20361C117.601 8.20361 118.119 9.14404 118.119 10.8271C118.119 12.5278 117.61 13.4595 116.673 13.4595Z" fill="#99A2AD"/>
<path d="M157.278 14.1494C158.702 14.1494 159.519 12.9453 159.519 10.8403C159.519 8.73975 158.689 7.50928 157.278 7.50928C155.859 7.50928 155.028 8.73535 155.028 10.8271C155.028 12.9365 155.85 14.1494 157.278 14.1494ZM157.278 13.4595C156.342 13.4595 155.824 12.5234 155.824 10.8271C155.824 9.15283 156.351 8.20361 157.278 8.20361C158.205 8.20361 158.724 9.14404 158.724 10.8271C158.724 12.5278 158.214 13.4595 157.278 13.4595ZM161.615 14.0439C161.932 14.0439 162.186 13.7847 162.186 13.4727C162.186 13.1562 161.932 12.9014 161.615 12.9014C161.303 12.9014 161.044 13.1562 161.044 13.4727C161.044 13.7847 161.303 14.0439 161.615 14.0439ZM161.615 10.6646C161.932 10.6646 162.186 10.4053 162.186 10.0933C162.186 9.77686 161.932 9.52197 161.615 9.52197C161.303 9.52197 161.044 9.77686 161.044 10.0933C161.044 10.4053 161.303 10.6646 161.615 10.6646ZM165.082 11.0776H165.886C166.787 11.0776 167.345 11.5347 167.345 12.2686C167.345 12.9629 166.752 13.4595 165.917 13.4595C165.1 13.4595 164.528 13.0244 164.458 12.3477H163.693C163.751 13.4331 164.638 14.1494 165.926 14.1494C167.178 14.1494 168.158 13.3364 168.158 12.2905C168.158 11.4248 167.635 10.8271 166.774 10.7173V10.647C167.468 10.48 167.886 9.92627 167.886 9.17041C167.886 8.24756 167.002 7.50928 165.895 7.50928C164.687 7.50928 163.9 8.18604 163.821 9.28467H164.59C164.656 8.60352 165.135 8.19922 165.864 8.19922C166.594 8.19922 167.082 8.62988 167.082 9.27588C167.082 9.93506 166.572 10.4009 165.851 10.4009H165.082V11.0776ZM171.731 14.1494C173.154 14.1494 173.972 12.9453 173.972 10.8403C173.972 8.73975 173.141 7.50928 171.731 7.50928C170.311 7.50928 169.481 8.73535 169.481 10.8271C169.481 12.9365 170.302 14.1494 171.731 14.1494ZM171.731 13.4595C170.795 13.4595 170.276 12.5234 170.276 10.8271C170.276 9.15283 170.803 8.20361 171.731 8.20361C172.658 8.20361 173.176 9.14404 173.176 10.8271C173.176 12.5278 172.667 13.4595 171.731 13.4595Z" fill="#99A2AD"/>
<path d="M212.247 14.1494C213.671 14.1494 214.489 12.9453 214.489 10.8403C214.489 8.73975 213.658 7.50928 212.247 7.50928C210.828 7.50928 209.997 8.73535 209.997 10.8271C209.997 12.9365 210.819 14.1494 212.247 14.1494ZM212.247 13.4595C211.311 13.4595 210.793 12.5234 210.793 10.8271C210.793 9.15283 211.32 8.20361 212.247 8.20361C213.175 8.20361 213.693 9.14404 213.693 10.8271C213.693 12.5278 213.183 13.4595 212.247 13.4595ZM216.584 14.0439C216.901 14.0439 217.156 13.7847 217.156 13.4727C217.156 13.1562 216.901 12.9014 216.584 12.9014C216.272 12.9014 216.013 13.1562 216.013 13.4727C216.013 13.7847 216.272 14.0439 216.584 14.0439ZM216.584 10.6646C216.901 10.6646 217.156 10.4053 217.156 10.0933C217.156 9.77686 216.901 9.52197 216.584 9.52197C216.272 9.52197 216.013 9.77686 216.013 10.0933C216.013 10.4053 216.272 10.6646 216.584 10.6646ZM221.563 14H222.336V12.686H223.237V11.9785H222.336V7.65869H221.19C220.047 9.36816 219.041 10.959 218.474 11.9653V12.686H221.563V14ZM219.282 11.9302C220.038 10.647 220.864 9.3374 221.515 8.39258H221.567V11.9829H219.282V11.9302ZM226.761 14.1494C228.185 14.1494 229.003 12.9453 229.003 10.8403C229.003 8.73975 228.172 7.50928 226.761 7.50928C225.342 7.50928 224.511 8.73535 224.511 10.8271C224.511 12.9365 225.333 14.1494 226.761 14.1494ZM226.761 13.4595C225.825 13.4595 225.307 12.5234 225.307 10.8271C225.307 9.15283 225.834 8.20361 226.761 8.20361C227.689 8.20361 228.207 9.14404 228.207 10.8271C228.207 12.5278 227.697 13.4595 226.761 13.4595Z" fill="#99A2AD"/>
<path d="M267.291 14.1494C268.715 14.1494 269.533 12.9453 269.533 10.8403C269.533 8.73975 268.702 7.50928 267.291 7.50928C265.872 7.50928 265.041 8.73535 265.041 10.8271C265.041 12.9365 265.863 14.1494 267.291 14.1494ZM267.291 13.4595C266.355 13.4595 265.837 12.5234 265.837 10.8271C265.837 9.15283 266.364 8.20361 267.291 8.20361C268.219 8.20361 268.737 9.14404 268.737 10.8271C268.737 12.5278 268.227 13.4595 267.291 13.4595ZM271.628 14.0439C271.945 14.0439 272.2 13.7847 272.2 13.4727C272.2 13.1562 271.945 12.9014 271.628 12.9014C271.316 12.9014 271.057 13.1562 271.057 13.4727C271.057 13.7847 271.316 14.0439 271.628 14.0439ZM271.628 10.6646C271.945 10.6646 272.2 10.4053 272.2 10.0933C272.2 9.77686 271.945 9.52197 271.628 9.52197C271.316 9.52197 271.057 9.77686 271.057 10.0933C271.057 10.4053 271.316 10.6646 271.628 10.6646ZM275.935 14.1494C277.249 14.1494 278.149 13.2705 278.149 11.9829C278.149 10.7349 277.306 9.86035 276.102 9.86035C275.517 9.86035 275.069 10.0405 274.761 10.4009H274.691L274.871 8.36621H277.789V7.65869H274.252L273.904 11.2534H274.647C274.906 10.8008 275.381 10.5415 275.957 10.5415C276.787 10.5415 277.358 11.1348 277.358 12.0049C277.358 12.875 276.792 13.4551 275.943 13.4551C275.196 13.4551 274.651 12.998 274.581 12.3125H273.803C273.874 13.4067 274.735 14.1494 275.935 14.1494ZM281.717 14.1494C283.141 14.1494 283.959 12.9453 283.959 10.8403C283.959 8.73975 283.128 7.50928 281.717 7.50928C280.298 7.50928 279.467 8.73535 279.467 10.8271C279.467 12.9365 280.289 14.1494 281.717 14.1494ZM281.717 13.4595C280.781 13.4595 280.263 12.5234 280.263 10.8271C280.263 9.15283 280.79 8.20361 281.717 8.20361C282.645 8.20361 283.163 9.14404 283.163 10.8271C283.163 12.5278 282.653 13.4595 281.717 13.4595Z" fill="#99A2AD"/>
<path d="M320.057 14.1494C321.481 14.1494 322.298 12.9453 322.298 10.8403C322.298 8.73975 321.468 7.50928 320.057 7.50928C318.637 7.50928 317.807 8.73535 317.807 10.8271C317.807 12.9365 318.629 14.1494 320.057 14.1494ZM320.057 13.4595C319.121 13.4595 318.602 12.5234 318.602 10.8271C318.602 9.15283 319.13 8.20361 320.057 8.20361C320.984 8.20361 321.503 9.14404 321.503 10.8271C321.503 12.5278 320.993 13.4595 320.057 13.4595ZM325.282 14H326.073V7.65869H325.286L323.599 8.87158V9.70654L325.211 8.5376H325.282V14ZM328.766 14.0439C329.083 14.0439 329.337 13.7847 329.337 13.4727C329.337 13.1562 329.083 12.9014 328.766 12.9014C328.454 12.9014 328.195 13.1562 328.195 13.4727C328.195 13.7847 328.454 14.0439 328.766 14.0439ZM328.766 10.6646C329.083 10.6646 329.337 10.4053 329.337 10.0933C329.337 9.77686 329.083 9.52197 328.766 9.52197C328.454 9.52197 328.195 9.77686 328.195 10.0933C328.195 10.4053 328.454 10.6646 328.766 10.6646ZM333.112 14.1494C334.536 14.1494 335.353 12.9453 335.353 10.8403C335.353 8.73975 334.523 7.50928 333.112 7.50928C331.692 7.50928 330.862 8.73535 330.862 10.8271C330.862 12.9365 331.684 14.1494 333.112 14.1494ZM333.112 13.4595C332.176 13.4595 331.657 12.5234 331.657 10.8271C331.657 9.15283 332.185 8.20361 333.112 8.20361C334.039 8.20361 334.558 9.14404 334.558 10.8271C334.558 12.5278 334.048 13.4595 333.112 13.4595ZM338.952 14.1494C340.376 14.1494 341.193 12.9453 341.193 10.8403C341.193 8.73975 340.363 7.50928 338.952 7.50928C337.532 7.50928 336.702 8.73535 336.702 10.8271C336.702 12.9365 337.524 14.1494 338.952 14.1494ZM338.952 13.4595C338.016 13.4595 337.497 12.5234 337.497 10.8271C337.497 9.15283 338.025 8.20361 338.952 8.20361C339.879 8.20361 340.398 9.14404 340.398 10.8271C340.398 12.5278 339.888 13.4595 338.952 13.4595Z" fill="#99A2AD"/>
</g>
<g clip-path="url(#clip1)">
<path d="M0 26H351V122H0V26Z" fill="#F2F3F5"/>
<path d="M0 69.2V76.8" stroke="#3F8AE0" stroke-width="2" stroke-miterlimit="10" stroke-linecap="round"/>
<path d="M5.51318 74.3818V71.6182" stroke="#3F8AE0" stroke-width="2" stroke-miterlimit="10" stroke-linecap="round"/>
<path d="M11.0259 74.0364V71.9637" stroke="#3F8AE0" stroke-width="2" stroke-miterlimit="10" stroke-linecap="round"/>
<path d="M60.2354 74.0364V71.9637" stroke="#3F8AE0" stroke-width="2" stroke-miterlimit="10" stroke-linecap="round"/>
<path d="M16.5396 73.6909V72.3091" stroke="#3F8AE0" stroke-width="2" stroke-miterlimit="10" stroke-linecap="round"/>
<path d="M22.0522 76.9152V69.0849" stroke="#3F8AE0" stroke-width="2" stroke-miterlimit="10" stroke-linecap="round"/>
<path d="M27.5654 80.9454V65.0545" stroke="#3F8AE0" stroke-width="2" stroke-miterlimit="10" stroke-linecap="round"/>
<path d="M32.9762 90.2727V55.7273" stroke="#3F8AE0" stroke-width="2" stroke-miterlimit="10" stroke-linecap="round"/>
<path d="M38.4897 79.5636V66.4363" stroke="#3F8AE0" stroke-width="2" stroke-miterlimit="10" stroke-linecap="round"/>
<path d="M44.0026 76.4545V69.5454" stroke="#3F8AE0" stroke-width="2" stroke-miterlimit="10" stroke-linecap="round"/>
<path d="M49.5156 79.5636V66.4363" stroke="#3F8AE0" stroke-width="2" stroke-miterlimit="10" stroke-linecap="round"/>
<path d="M55.0284 75.0727V70.9272" stroke="#3F8AE0" stroke-width="2" stroke-miterlimit="10" stroke-linecap="round"/>
<path d="M66.0552 75.0727V70.9272" stroke="#3F8AE0" stroke-width="2" stroke-miterlimit="10" stroke-linecap="round"/>
<path d="M71.5684 79.2182V66.7818" stroke="#3F8AE0" stroke-width="2" stroke-miterlimit="10" stroke-linecap="round"/>
<path d="M110.261 74.9001V71.1001" stroke="#3F8AE0" stroke-width="2" stroke-miterlimit="10" stroke-linecap="round"/>
<path d="M116.081 76.8575V69.1424" stroke="#3F8AE0" stroke-width="2" stroke-miterlimit="10" stroke-linecap="round"/>
<path d="M121.594 72.3667V73.6334" stroke="#3F8AE0" stroke-width="2" stroke-miterlimit="10" stroke-linecap="round"/>
<path d="M76.9786 84.4V61.6" stroke="#3F8AE0" stroke-width="2" stroke-miterlimit="10" stroke-linecap="round"/>
<path d="M82.4918 77.4909V68.5091" stroke="#3F8AE0" stroke-width="2" stroke-miterlimit="10" stroke-linecap="round"/>
<path d="M88.0055 75.0727V70.9272" stroke="#3F8AE0" stroke-width="2" stroke-miterlimit="10" stroke-linecap="round"/>
<path d="M93.5187 74.0364V71.9637" stroke="#3F8AE0" stroke-width="2" stroke-miterlimit="10" stroke-linecap="round"/>
<path d="M127.312 76.8575V69.1424" stroke="#3F8AE0" stroke-width="2" stroke-miterlimit="10" stroke-linecap="round"/>
<path d="M132.825 84.5152V61.4849" stroke="#3F8AE0" stroke-width="2" stroke-miterlimit="10" stroke-linecap="round"/>
<path d="M138.235 86.8182V59.1818" stroke="#3F8AE0" stroke-width="2" stroke-miterlimit="10" stroke-linecap="round"/>
<path d="M143.748 92V54" stroke="#3F8AE0" stroke-width="2" stroke-miterlimit="10" stroke-linecap="round"/>
<path d="M149.262 86.8182V59.1818" stroke="#3F8AE0" stroke-width="2" stroke-miterlimit="10" stroke-linecap="round"/>
<path d="M154.775 63.2122V82.7879" stroke="#3F8AE0" stroke-width="2" stroke-miterlimit="10" stroke-linecap="round"/>
<path d="M99.0314 79.2182V66.7818" stroke="#3F8AE0" stroke-width="2" stroke-miterlimit="10" stroke-linecap="round"/>
<path d="M104.545 75.7636V70.2363" stroke="#3F8AE0" stroke-width="2" stroke-miterlimit="10" stroke-linecap="round"/>
<path d="M161.309 65.9758V80.0243" stroke="#3F8AE0" stroke-width="2" stroke-miterlimit="10" stroke-linecap="round"/>
<path d="M166.822 68.3939V77.606" stroke="#3F8AE0" stroke-width="2" stroke-miterlimit="10" stroke-linecap="round"/>
<path d="M172.335 74.0364V71.9637" stroke="#3F8AE0" stroke-width="2" stroke-miterlimit="10" stroke-linecap="round"/>
<path d="M221.545 76.4545V69.5454" stroke="#3F8AE0" stroke-width="2" stroke-miterlimit="10" stroke-linecap="round"/>
<path d="M177.848 73.6909V72.3091" stroke="#3F8AE0" stroke-width="2" stroke-miterlimit="10" stroke-linecap="round"/>
<path d="M344.874 71.9637V74.0364" stroke="#3F8AE0" stroke-width="2" stroke-miterlimit="10" stroke-linecap="round"/>
<path d="M338.34 68.5091V77.4909" stroke="#3F8AE0" stroke-width="2" stroke-miterlimit="10" stroke-linecap="round"/>
<path d="M327.314 71.9637V74.0364" stroke="#3F8AE0" stroke-width="2" stroke-miterlimit="10" stroke-linecap="round"/>
<path d="M183.361 76.9152V69.0849" stroke="#3F8AE0" stroke-width="2" stroke-miterlimit="10" stroke-linecap="round"/>
<path d="M188.874 80.9454V65.0545" stroke="#3F8AE0" stroke-width="2" stroke-miterlimit="10" stroke-linecap="round"/>
<path d="M194.285 77.4909V68.5091" stroke="#3F8AE0" stroke-width="2" stroke-miterlimit="10" stroke-linecap="round"/>
<path d="M199.799 79.5636V66.4363" stroke="#3F8AE0" stroke-width="2" stroke-miterlimit="10" stroke-linecap="round"/>
<path d="M205.312 84.4V61.6" stroke="#3F8AE0" stroke-width="2" stroke-miterlimit="10" stroke-linecap="round"/>
<path d="M210.824 83.0182V62.9818" stroke="#3F8AE0" stroke-width="2" stroke-miterlimit="10" stroke-linecap="round"/>
<path d="M216.338 80.9454V65.0545" stroke="#3F8AE0" stroke-width="2" stroke-miterlimit="10" stroke-linecap="round"/>
<path d="M227.364 83.0182V62.9818" stroke="#3F8AE0" stroke-width="2" stroke-miterlimit="10" stroke-linecap="round"/>
<path d="M232.877 86.8182V59.1818" stroke="#3F8AE0" stroke-width="2" stroke-miterlimit="10" stroke-linecap="round"/>
<path d="M271.571 74.0364V71.9637" stroke="#3F8AE0" stroke-width="2" stroke-miterlimit="10" stroke-linecap="round"/>
<path d="M277.39 75.0727V70.9272" stroke="#3F8AE0" stroke-width="2" stroke-miterlimit="10" stroke-linecap="round"/>
<path d="M282.903 72.6545V73.3455" stroke="#3F8AE0" stroke-width="2" stroke-miterlimit="10" stroke-linecap="round"/>
<path d="M351 72.6545V73.3455" stroke="#3F8AE0" stroke-width="2" stroke-miterlimit="10" stroke-linecap="round"/>
<path d="M332.623 75.0727V70.9272" stroke="#3F8AE0" stroke-width="2" stroke-miterlimit="10" stroke-linecap="round"/>
<path d="M321.393 72.6545V73.3455" stroke="#3F8AE0" stroke-width="2" stroke-miterlimit="10" stroke-linecap="round"/>
<path d="M238.288 92V54" stroke="#3F8AE0" stroke-width="2" stroke-miterlimit="10" stroke-linecap="round" stroke-linejoin="round"/>
<path d="M243.801 83.0182V62.9818" stroke="#3F8AE0" stroke-width="2" stroke-miterlimit="10" stroke-linecap="round"/>
<path d="M249.314 79.2182V66.7818" stroke="#3F8AE0" stroke-width="2" stroke-miterlimit="10" stroke-linecap="round"/>
<path d="M254.827 75.7636V70.2363" stroke="#3F8AE0" stroke-width="2" stroke-miterlimit="10" stroke-linecap="round"/>
<path d="M288.621 75.0727V70.9272" stroke="#3F8AE0" stroke-width="2" stroke-miterlimit="10" stroke-linecap="round"/>
<path d="M294.133 79.2182V66.7818" stroke="#3F8AE0" stroke-width="2" stroke-miterlimit="10" stroke-linecap="round"/>
<path d="M299.545 75.4182V70.5818" stroke="#3F8AE0" stroke-width="2" stroke-miterlimit="10" stroke-linecap="round"/>
<path d="M305.057 77.4909V68.5091" stroke="#3F8AE0" stroke-width="2" stroke-miterlimit="10" stroke-linecap="round"/>
<path d="M310.571 75.0727V70.9272" stroke="#3F8AE0" stroke-width="2" stroke-miterlimit="10" stroke-linecap="round"/>
<path d="M316.084 74.0364V71.9637" stroke="#3F8AE0" stroke-width="2" stroke-miterlimit="10" stroke-linecap="round"/>
<path d="M260.34 79.2182V66.7818" stroke="#3F8AE0" stroke-width="2" stroke-miterlimit="10" stroke-linecap="round"/>
<path d="M265.854 75.7636V70.2363" stroke="#3F8AE0" stroke-width="2" stroke-miterlimit="10" stroke-linecap="round"/>
</g>
<rect x="0.25" y="0.25" width="350.5" height="181.5" rx="9.75" stroke="#D7D8D9" stroke-width="0.5"/>
<defs>
<clipPath id="clip0">
<rect width="351" height="26" fill="white"/>
</clipPath>
<clipPath id="clip1">
<path d="M0 26H351V122H0V26Z" fill="white"/>
</clipPath>
</defs>
</svg>
